<svg xmlns="http://www.w3.org/2000/svg" style="display:none">

  <symbol id="file" viewBox="0 0 24 24" fill="none">
    <path d="M3.46447 20.5355C4.92893 22 7.28595 22 12 22C16.714 22 19.0711 22 20.5355 20.5355C22 19.0711 22 16.714 22 12C22 11.6585 22 11.4878 21.9848 11.3142C21.9142 10.5049 21.586 9.71257 21.0637 9.09034C20.9516 8.95687 20.828 8.83317 20.5806 8.58578L15.4142 3.41944C15.1668 3.17206 15.0431 3.04835 14.9097 2.93631C14.2874 2.414 13.4951 2.08581 12.6858 2.01515C12.5122 2 12.3415 2 12 2C7.28595 2 4.92893 2 3.46447 3.46447C2 4.92893 2 7.28595 2 12C2 16.714 2 19.0711 3.46447 20.5355Z" stroke="currentColor" strokeWidth="1.5"/>
    <path d="M17 22V21C17 19.1144 17 18.1716 16.4142 17.5858C15.8284 17 14.8856 17 13 17H11C9.11438 17 8.17157 17 7.58579 17.5858C7 18.1716 7 19.1144 7 21V22" stroke="currentColor" strokeWidth="1.5"/>
    <path d="M7 8H13" stroke="currentColor" strokeWidth="1.5" strokeLinecap="round"/>
  </symbol>

  <symbol id="arrow-left" viewBox="0 0 24 24" fill="none">
    <path d="M20 12H4M10 18L4 12L10 6" stroke="currentColor" strokeWidth="1.5" strokeLinecap="round" strokeLinejoin="round"/>
  </symbol>

<symbol
id="badge-check"
                      viewBox="0 0 24 24"
                      fill="none"
                      xmlns="http://www.w3.org/2000/svg"
                    >
                      <path
                        fillRule="evenodd"
                        clipRule="evenodd"
                        d="M9.5924 3.20027C9.34888 3.4078 9.22711 3.51158 9.09706 3.59874C8.79896 3.79854 8.46417 3.93721 8.1121 4.00672C7.95851 4.03705 7.79903 4.04977 7.48008 4.07522C6.6787 4.13918 6.278 4.17115 5.94371 4.28923C5.17051 4.56233 4.56233 5.17051 4.28923 5.94371C4.17115 6.278 4.13918 6.6787 4.07522 7.48008C4.04977 7.79903 4.03705 7.95851 4.00672 8.1121C3.93721 8.46417 3.79854 8.79896 3.59874 9.09706C3.51158 9.22711 3.40781 9.34887 3.20027 9.5924C2.67883 10.2043 2.4181 10.5102 2.26522 10.8301C1.91159 11.57 1.91159 12.43 2.26522 13.1699C2.41811 13.4898 2.67883 13.7957 3.20027 14.4076C3.40778 14.6511 3.51158 14.7729 3.59874 14.9029C3.79854 15.201 3.93721 15.5358 4.00672 15.8879C4.03705 16.0415 4.04977 16.201 4.07522 16.5199C4.13918 17.3213 4.17115 17.722 4.28923 18.0563C4.56233 18.8295 5.17051 19.4377 5.94371 19.7108C6.278 19.8288 6.6787 19.8608 7.48008 19.9248C7.79903 19.9502 7.95851 19.963 8.1121 19.9933C8.46417 20.0628 8.79896 20.2015 9.09706 20.4013C9.22711 20.4884 9.34887 20.5922 9.5924 20.7997C10.2043 21.3212 10.5102 21.5819 10.8301 21.7348C11.57 22.0884 12.43 22.0884 13.1699 21.7348C13.4898 21.5819 13.7957 21.3212 14.4076 20.7997C14.6511 20.5922 14.7729 20.4884 14.9029 20.4013C15.201 20.2015 15.5358 20.0628 15.8879 19.9933C16.0415 19.963 16.201 19.9502 16.5199 19.9248C17.3213 19.8608 17.722 19.8288 18.0563 19.7108C18.8295 19.4377 19.4377 18.8295 19.7108 18.0563C19.8288 17.722 19.8608 17.3213 19.9248 16.5199C19.9502 16.201 19.963 16.0415 19.9933 15.8879C20.0628 15.5358 20.2015 15.201 20.4013 14.9029C20.4884 14.7729 20.5922 14.6511 20.7997 14.4076C21.3212 13.7957 21.5819 13.4898 21.7348 13.1699C22.0884 12.43 22.0884 11.57 21.7348 10.8301C21.5819 10.5102 21.3212 10.2043 20.7997 9.5924C20.5922 9.34887 20.4884 9.22711 20.4013 9.09706C20.2015 8.79896 20.0628 8.46417 19.9933 8.1121C19.963 7.95851 19.9502 7.79903 19.9248 7.48008C19.8608 6.6787 19.8288 6.278 19.7108 5.94371C19.4377 5.17051 18.8295 4.56233 18.0563 4.28923C17.722 4.17115 17.3213 4.13918 16.5199 4.07522C16.201 4.04977 16.0415 4.03705 15.8879 4.00672C15.5358 3.93721 15.201 3.79854 14.9029 3.59874C14.7729 3.51158 14.6511 3.40781 14.4076 3.20027C13.7957 2.67883 13.4898 2.41811 13.1699 2.26522C12.43 1.91159 11.57 1.91159 10.8301 2.26522C10.5102 2.4181 10.2043 2.67883 9.5924 3.20027ZM16.3735 9.86314C16.6913 9.5453 16.6913 9.03 16.3735 8.71216C16.0557 8.39433 15.5403 8.39433 15.2225 8.71216L10.3723 13.5624L8.77746 11.9676C8.45963 11.6498 7.94432 11.6498 7.62649 11.9676C7.30866 12.2854 7.30866 12.8007 7.62649 13.1186L9.79678 15.2889C10.1146 15.6067 10.6299 15.6067 10.9478 15.2889L16.3735 9.86314Z"
            fill="currentColor"
       />
  </symbol>

  <symbol id="user" viewBox="0 0 24 24" fill="none">
    <circle cx="12" cy="6" r="4" fill="currentColor"/>
    <ellipse cx="12" cy="17" rx="7" ry="4" fill="currentColor"/>
  </symbol>

  <symbol id="image" viewBox="0 0 24 24" fill="none">
    <path d="M2 12C2 7.28595 2 4.92893 3.46447 3.46447C4.92893 2 7.28595 2 12 2C16.714 2 19.0711 2 20.5355 3.46447C22 4.92893 22 7.28595 22 12C22 16.714 22 19.0711 20.5355 20.5355C19.0711 22 16.714 22 12 22C7.28595 22 4.92893 22 3.46447 20.5355C2 19.0711 2 16.714 2 12Z" stroke="currentColor" strokeWidth="2.25"/>
    <circle cx="16" cy="8" r="2" stroke="currentColor" strokeWidth="2.25"/>
    <path d="M2 12.5001L3.75159 10.9675C4.66286 10.1702 6.03628 10.2159 6.89249 11.0721L11.1822 15.3618C11.8694 16.0491 12.9512 16.1428 13.7464 15.5839L14.0446 15.3744C15.1888 14.5702 16.7369 14.6634 17.7765 15.599L21 18.5001" stroke="currentColor" strokeWidth="2" strokeLinecap="round"/>
  </symbol>

  <symbol id="globe" viewBox="0 0 24 24" fill="none">
    <path d="M2 12C2 7.28595 2 4.92893 3.46447 3.46447C4.92893 2 7.28595 2 12 2C16.714 2 19.0711 2 20.5355 3.46447C22 4.92893 22 7.28595 22 12C22 16.714 22 19.0711 20.5355 20.5355C19.0711 22 16.714 22 12 22C7.28595 22 4.92893 22 3.46447 20.5355C2 19.0711 2 16.714 2 12Z" stroke="currentColor" strokeWidth="2.25"/>
    <path d="M21.5 8H2.5" stroke="currentColor" strokeWidth="2.25" strokeLinecap="round"/>
    <path d="M10.5 2.5L7 8" stroke="currentColor" strokeWidth="2.25" strokeLinecap="round"/>
    <path d="M17 2.5L13.5 8" stroke="currentColor" strokeWidth="2.25" strokeLinecap="round"/>
  </symbol>

  <symbol id="checklist" viewBox="0 0 24 24" fill="none">
    <path d="M2 12C2 7.28595 2 4.92893 3.46447 3.46447C4.92893 2 7.28595 2 12 2C16.714 2 19.0711 2 20.5355 3.46447C22 4.92893 22 7.28595 22 12C22 16.714 22 19.0711 20.5355 20.5355C19.0711 22 16.714 22 12 22C7.28595 22 4.92893 22 3.46447 20.5355C2 19.0711 2 16.714 2 12Z" stroke="currentColor" strokeWidth="2.25"/>
    <path d="M6 15.8L7.14286 17L10 14" stroke="currentColor" strokeWidth="2.25" strokeLinecap="round" strokeLinejoin="round"/>
    <path d="M6 8.8L7.14286 10L10 7" stroke="currentColor" strokeWidth="2.25" strokeLinecap="round" strokeLinejoin="round"/>
    <path d="M13 9L18 9" stroke="currentColor" strokeWidth="2.25" strokeLinecap="round"/>
    <path d="M13 16L18 16" stroke="currentColor" strokeWidth="2.25" strokeLinecap="round"/>
  </symbol>

  <symbol id="emoji-happy" viewBox="0 0 24 24" fill="none">
    <path d="M9 16C9.85038 16.6303 10.8846 17 12 17C13.1154 17 14.1496 16.6303 15 16" stroke="currentColor" stroke-width="2" strokeLinecap="round"/>
    <ellipse cx="15" cy="10.5" rx="1" ry="1.5" fill="currentColor"/>
    <ellipse cx="9" cy="10.5" rx="1" ry="1.5" fill="currentColor"/>
    <path d="M2 12C2 7.28595 2 4.92893 3.46447 3.46447C4.92893 2 7.28595 2 12 2C16.714 2 19.0711 2 20.5355 3.46447C22 4.92893 22 7.28595 22 12C22 16.714 22 19.0711 20.5355 20.5355C19.0711 22 16.714 22 12 22C7.28595 22 4.92893 22 3.46447 20.5355C2 19.0711 2 16.714 2 12Z" stroke="currentColor" strokeWidth="2.5"/>
  </symbol>

  <symbol id="home" viewBox="0 0 24 24" fill="none">
    <path d="M11.25 18C11.25 18.4142 11.5858 18.75 12 18.75C12.4142 18.75 12.75 18.4142 12.75 18V15C12.75 14.5858 12.4142 14.25 12 14.25C11.5858 14.25 11.25 14.5858 11.25 15V18Z" fill="currentColor"/>
    <path fill-rule="evenodd" clip-rule="evenodd" d="M12 1.25C11.2919 1.25 10.6485 1.45282 9.95055 1.79224C9.27585 2.12035 8.49642 2.60409 7.52286 3.20832L5.45628 4.4909C4.53509 5.06261 3.79744 5.5204 3.2289 5.95581C2.64015 6.40669 2.18795 6.86589 1.86131 7.46263C1.53535 8.05812 1.38857 8.69174 1.31819 9.4407C1.24999 10.1665 1.24999 11.0541 1.25 12.1672V13.7799C1.24999 15.6837 1.24998 17.1866 1.4027 18.3616C1.55937 19.567 1.88856 20.5401 2.63236 21.3094C3.37958 22.0824 4.33046 22.4277 5.50761 22.5914C6.64849 22.75 8.10556 22.75 9.94185 22.75H14.0581C15.8944 22.75 17.3515 22.75 18.4924 22.5914C19.6695 22.4277 20.6204 22.0824 21.3676 21.3094C22.1114 20.5401 22.4406 19.567 22.5973 18.3616C22.75 17.1866 22.75 15.6838 22.75 13.7799V12.1672C22.75 11.0541 22.75 10.1665 22.6818 9.4407C22.6114 8.69174 22.4646 8.05812 22.1387 7.46263C21.8121 6.86589 21.3599 6.40669 20.7711 5.95581C20.2026 5.5204 19.4649 5.06262 18.5437 4.49091L16.4771 3.20831C15.5036 2.60409 14.7241 2.12034 14.0494 1.79224C13.3515 1.45282 12.7081 1.25 12 1.25ZM8.27953 4.50412C9.29529 3.87371 10.0095 3.43153 10.6065 3.1412C11.1882 2.85833 11.6002 2.75 12 2.75C12.3998 2.75 12.8118 2.85833 13.3935 3.14119C13.9905 3.43153 14.7047 3.87371 15.7205 4.50412L17.7205 5.74537C18.6813 6.34169 19.3559 6.76135 19.8591 7.1467C20.3487 7.52164 20.6303 7.83106 20.8229 8.18285C21.0162 8.53589 21.129 8.94865 21.1884 9.58104C21.2492 10.2286 21.25 11.0458 21.25 12.2039V13.725C21.25 15.6959 21.2485 17.1012 21.1098 18.1683C20.9736 19.2163 20.717 19.8244 20.2892 20.2669C19.8649 20.7058 19.2871 20.9664 18.2858 21.1057C17.2602 21.2483 15.9075 21.25 14 21.25H10C8.09247 21.25 6.73983 21.2483 5.71422 21.1057C4.71286 20.9664 4.13514 20.7058 3.71079 20.2669C3.28301 19.8244 3.02642 19.2163 2.89019 18.1683C2.75149 17.1012 2.75 15.6959 2.75 13.725V12.2039C2.75 11.0458 2.75076 10.2286 2.81161 9.58104C2.87103 8.94865 2.98385 8.53589 3.17709 8.18285C3.36965 7.83106 3.65133 7.52164 4.14092 7.1467C4.6441 6.76135 5.31869 6.34169 6.27953 5.74537L8.27953 4.50412Z" fill="currentColor"/>
  </symbol>

  <symbol id="search" viewBox="0 0 24 24" fill="none">
    <path fill-rule="evenodd" clip-rule="evenodd" d="M11.5 2.75C6.66751 2.75 2.75 6.66751 2.75 11.5C2.75 16.3325 6.66751 20.25 11.5 20.25C16.3325 20.25 20.25 16.3325 20.25 11.5C20.25 6.66751 16.3325 2.75 11.5 2.75ZM1.25 11.5C1.25 5.83908 5.83908 1.25 11.5 1.25C17.1609 1.25 21.75 5.83908 21.75 11.5C21.75 14.0605 20.8111 16.4017 19.2589 18.1982L22.5303 21.4697C22.8232 21.7626 22.8232 22.2374 22.5303 22.5303C22.2374 22.8232 21.7626 22.8232 21.4697 22.5303L18.1982 19.2589C16.4017 20.8111 14.0605 21.75 11.5 21.75C5.83908 21.75 1.25 17.1609 1.25 11.5Z" fill="currentColor"/>
  </symbol>

  <symbol id="bell" viewBox="0 0 24 24" fill="none">
    <path fill-rule="evenodd" clip-rule="evenodd" d="M12 1.25C7.71983 1.25 4.25004 4.71979 4.25004 9V9.7041C4.25004 10.401 4.04375 11.0824 3.65717 11.6622L2.50856 13.3851C1.17547 15.3848 2.19318 18.1028 4.51177 18.7351C5.26738 18.9412 6.02937 19.1155 6.79578 19.2581L6.79768 19.2632C7.56667 21.3151 9.62198 22.75 12 22.75C14.378 22.75 16.4333 21.3151 17.2023 19.2632L17.2042 19.2581C17.9706 19.1155 18.7327 18.9412 19.4883 18.7351C21.8069 18.1028 22.8246 15.3848 21.4915 13.3851L20.3429 11.6622C19.9563 11.0824 19.75 10.401 19.75 9.7041V9C19.75 4.71979 16.2802 1.25 12 1.25ZM15.3764 19.537C13.1335 19.805 10.8664 19.8049 8.62349 19.5369C9.33444 20.5585 10.571 21.25 12 21.25C13.4289 21.25 14.6655 20.5585 15.3764 19.537ZM5.75004 9C5.75004 5.54822 8.54826 2.75 12 2.75C15.4518 2.75 18.25 5.54822 18.25 9V9.7041C18.25 10.6972 18.544 11.668 19.0948 12.4943L20.2434 14.2172C21.0086 15.3649 20.4245 16.925 19.0936 17.288C14.4494 18.5546 9.5507 18.5546 4.90644 17.288C3.57561 16.925 2.99147 15.3649 3.75664 14.2172L4.90524 12.4943C5.45609 11.668 5.75004 10.6972 5.75004 9.7041V9Z" fill="currentColor"/>
  </symbol>

  <symbol id="inbox" viewBox="0 0 24 24" fill="none">
    <path fill-rule="evenodd" clip-rule="evenodd" d="M9.94358 3.25H14.0564C15.8942 3.24998 17.3498 3.24997 18.489 3.40314C19.6614 3.56076 20.6104 3.89288 21.3588 4.64124C22.1071 5.38961 22.4392 6.33856 22.5969 7.51098C22.75 8.65019 22.75 10.1058 22.75 11.9436V12.0564C22.75 13.8942 22.75 15.3498 22.5969 16.489C22.4392 17.6614 22.1071 18.6104 21.3588 19.3588C20.6104 20.1071 19.6614 20.4392 18.489 20.5969C17.3498 20.75 15.8942 20.75 14.0564 20.75H9.94359C8.10583 20.75 6.65019 20.75 5.51098 20.5969C4.33856 20.4392 3.38961 20.1071 2.64124 19.3588C1.89288 18.6104 1.56076 17.6614 1.40314 16.489C1.24997 15.3498 1.24998 13.8942 1.25 12.0564V11.9436C1.24998 10.1058 1.24997 8.65019 1.40314 7.51098C1.56076 6.33856 1.89288 5.38961 2.64124 4.64124C3.38961 3.89288 4.33856 3.56076 5.51098 3.40314C6.65019 3.24997 8.10582 3.24998 9.94358 3.25ZM5.71085 4.88976C4.70476 5.02502 4.12511 5.27869 3.7019 5.7019C3.27869 6.12511 3.02502 6.70476 2.88976 7.71085C2.75159 8.73851 2.75 10.0932 2.75 12C2.75 13.9068 2.75159 15.2615 2.88976 16.2892C3.02502 17.2952 3.27869 17.8749 3.7019 18.2981C4.12511 18.7213 4.70476 18.975 5.71085 19.1102C6.73851 19.2484 8.09318 19.25 10 19.25H14C15.9068 19.25 17.2615 19.2484 18.2892 19.1102C19.2952 18.975 19.8749 18.7213 20.2981 18.2981C20.7213 17.8749 20.975 17.2952 21.1102 16.2892C21.2484 15.2615 21.25 13.9068 21.25 12C21.25 10.0932 21.2484 8.73851 21.1102 7.71085C20.975 6.70476 20.7213 6.12511 20.2981 5.7019C19.8749 5.27869 19.2952 5.02502 18.2892 4.88976C17.2615 4.75159 15.9068 4.75 14 4.75H10C8.09318 4.75 6.73851 4.75159 5.71085 4.88976ZM5.42383 7.51986C5.68901 7.20165 6.16193 7.15866 6.48014 7.42383L8.63903 9.22291C9.57199 10.0004 10.2197 10.5384 10.7666 10.8901C11.2959 11.2306 11.6549 11.3449 12 11.3449C12.3451 11.3449 12.7041 11.2306 13.2334 10.8901C13.7803 10.5384 14.428 10.0004 15.361 9.22291L17.5199 7.42383C17.8381 7.15866 18.311 7.20165 18.5762 7.51986C18.8413 7.83807 18.7983 8.31099 18.4801 8.57617L16.2836 10.4066C15.3973 11.1452 14.6789 11.7439 14.0448 12.1371C13.4259 12.5231 12.9197 12.6949 12 12.6949C11.0803 12.6949 10.5741 12.5231 9.95525 12.1371C9.32114 11.7439 8.60274 11.1452 7.71641 10.4066L5.5199 8.57617C5.20173 8.31099 5.15865 7.83807 5.42383 7.51986Z" fill="currentColor"/>
  </symbol>

  <symbol id="profile" viewBox="0 0 24 24" fill="none">
    <path fill-rule="evenodd" clip-rule="evenodd" d="M12 1.25C9.37665 1.25 7.25 3.37665 7.25 6C7.25 8.62335 9.37665 10.75 12 10.75C14.6234 10.75 16.75 8.62335 16.75 6C16.75 3.37665 14.6234 1.25 12 1.25ZM8.75 6C8.75 4.20507 10.2051 2.75 12 2.75C13.7949 2.75 15.25 4.20507 15.25 6C15.25 7.79493 13.7949 9.25 12 9.25C10.2051 9.25 8.75 7.79493 8.75 6Z" fill="currentColor"/>
    <path fill-rule="evenodd" clip-rule="evenodd" d="M12 12.25C9.96067 12.25 8.07752 12.7208 6.67815 13.5204C5.3 14.3079 4.25 15.5101 4.25 17C4.25 18.4899 5.3 19.6921 6.67815 20.4796C8.07752 21.2792 9.96067 21.75 12 21.75C14.0393 21.75 15.9225 21.2792 17.3219 20.4796C18.7 19.6921 19.75 18.4899 19.75 17C19.75 15.5101 18.7 14.3079 17.3219 13.5204C15.9225 12.7208 14.0393 12.25 12 12.25ZM5.75 17C5.75 16.2807 6.26701 15.483 7.42236 14.8228C8.55649 14.1747 10.1733 13.75 12 13.75C13.8267 13.75 15.4435 14.1747 16.5776 14.8228C17.733 15.483 18.25 16.2807 18.25 17C18.25 17.7193 17.733 18.517 16.5776 19.1772C15.4435 19.8253 13.8267 20.25 12 20.25C10.1733 20.25 8.55649 19.8253 7.42236 19.1772C6.26701 18.517 5.75 17.7193 5.75 17Z" fill="currentColor"/>
  </symbol>

  <symbol id="more-horizontal" viewBox="0 0 24 24" fill="none">
    <path d="M7 12C7 13.1046 6.10457 14 5 14C3.89543 14 3 13.1046 3 12C3 10.8954 3.89543 10 5 10C6.10457 10 7 10.8954 7 12Z" fill="currentColor"/>
    <path d="M14 12C14 13.1046 13.1046 14 12 14C10.8954 14 10 13.1046 10 12C10 10.8954 10.8954 10 12 10C13.1046 10 14 10.8954 14 12Z" fill="currentColor"/>
    <path d="M21 12C21 13.1046 20.1046 14 19 14C17.8954 14 17 13.1046 17 12C17 10.8954 17.8954 10 19 10C20.1046 10 21 10.8954 21 12Z" fill="currentColor"/>
  </symbol>

  <symbol id="user-circle" viewBox="0 0 24 24" fill="none">
    <circle cx="12" cy="9" r="3" stroke="currentColor" strokeWidth="1.5"/>
    <circle cx="12" cy="12" r="10" stroke="currentColor" strokeWidth="1.5"/>
    <path d="M17.9691 20C17.81 17.1085 16.9247 15 11.9999 15C7.07521 15 6.18991 17.1085 6.03076 20" stroke="currentColor" strokeWidth="1.5" strokeLinecap="round"/>
  </symbol>

  <symbol id="logout" viewBox="0 0 24 24" fill="none">
    <path d="M14.9453 1.25C13.5778 1.24998 12.4754 1.24996 11.6085 1.36652C10.7084 1.48754 9.95048 1.74643 9.34857 2.34835C8.82363 2.87328 8.55839 3.51836 8.41916 4.27635C8.28387 5.01291 8.25799 5.9143 8.25196 6.99583C8.24966 7.41003 8.58357 7.74768 8.99778 7.74999C9.41199 7.7523 9.74964 7.41838 9.75194 7.00418C9.75803 5.91068 9.78643 5.1356 9.89448 4.54735C9.99859 3.98054 10.1658 3.65246 10.4092 3.40901C10.686 3.13225 11.0746 2.9518 11.8083 2.85315C12.5637 2.75159 13.5648 2.75 15.0002 2.75H16.0002C17.4356 2.75 18.4367 2.75159 19.1921 2.85315C19.9259 2.9518 20.3144 3.13225 20.5912 3.40901C20.868 3.68577 21.0484 4.07435 21.1471 4.80812C21.2486 5.56347 21.2502 6.56459 21.2502 8V16C21.2502 17.4354 21.2486 18.4365 21.1471 19.1919C21.0484 19.9257 20.868 20.3142 20.5912 20.591C20.3144 20.8678 19.9259 21.0482 19.1921 21.1469C18.4367 21.2484 17.4356 21.25 16.0002 21.25H15.0002C13.5648 21.25 12.5637 21.2484 11.8083 21.1469C11.0746 21.0482 10.686 20.8678 10.4092 20.591C10.1658 20.3475 9.99859 20.0195 9.89448 19.4527C9.78643 18.8644 9.75803 18.0893 9.75194 16.9958C9.74964 16.5816 9.41199 16.2477 8.99778 16.25C8.58357 16.2523 8.24966 16.59 8.25196 17.0042C8.25799 18.0857 8.28387 18.9871 8.41916 19.7236C8.55839 20.4816 8.82363 21.1267 9.34857 21.6517C9.95048 22.2536 10.7084 22.5125 11.6085 22.6335C12.4754 22.75 13.5778 22.75 14.9453 22.75H16.0551C17.4227 22.75 18.525 22.75 19.392 22.6335C20.2921 22.5125 21.0499 22.2536 21.6519 21.6517C22.2538 21.0497 22.5127 20.2919 22.6337 19.3918C22.7503 18.5248 22.7502 17.4225 22.7502 16.0549V7.94513C22.7502 6.57754 22.7503 5.47522 22.6337 4.60825C22.5127 3.70814 22.2538 2.95027 21.6519 2.34835C21.0499 1.74643 20.2921 1.48754 19.392 1.36652C18.525 1.24996 17.4227 1.24998 16.0551 1.25H14.9453Z" fill="currentColor"/>
    <path d="M15 11.25C15.4142 11.25 15.75 11.5858 15.75 12C15.75 12.4142 15.4142 12.75 15 12.75H4.02744L5.98809 14.4306C6.30259 14.7001 6.33901 15.1736 6.06944 15.4881C5.79988 15.8026 5.3264 15.839 5.01191 15.5694L1.51191 12.5694C1.34567 12.427 1.25 12.2189 1.25 12C1.25 11.7811 1.34567 11.573 1.51191 11.4306L5.01191 8.43056C5.3264 8.16099 5.79988 8.19741 6.06944 8.51191C6.33901 8.8264 6.30259 9.29988 5.98809 9.56944L4.02744 11.25H15Z" fill="currentColor"/>
  </symbol>

  <symbol id="check-circle" viewBox="0 0 24 24" fill="currentColor">
    <path fill-rule="evenodd" d="M2.25 12c0-5.385 4.365-9.75 9.75-9.75s9.75 4.365 9.75 9.75-4.365 9.75-9.75 9.75S2.25 17.385 2.25 12Zm13.36-1.814a.75.75 0 1 0-1.22-.872l-3.236 4.53L9.53 12.22a.75.75 0 0 0-1.06 1.06l2.25 2.25a.75.75 0 0 0 1.14-.094l3.75-5.25Z" clip-rule="evenodd"/>
  </symbol>

  <symbol id="clock" viewBox="0 0 24 24" fill="none">
    <path d="M12 8V12L14.5 14.5" stroke="currentColor" strokeWidth="1.5" strokeLinecap="round" strokeLinejoin="round"/>
    <path d="M2 12C2 7.28595 2 4.92893 3.46447 3.46447C4.92893 2 7.28595 2 12 2C16.714 2 19.0711 2 20.5355 3.46447C22 4.92893 22 7.28595 22 12C22 16.714 22 19.0711 20.5355 20.5355C19.0711 22 16.714 22 12 22C7.28595 22 4.92893 22 3.46447 20.5355C2 19.0711 2 16.714 2 12Z" stroke="currentColor" strokeWidth="1.5"/>
  </symbol>

  <symbol id="task-list" viewBox="0 0 24 24" fill="none">
    <path d="M2 12C2 7.28595 2 4.92893 3.46447 3.46447C4.92893 2 7.28595 2 12 2C16.714 2 19.0711 2 20.5355 3.46447C22 4.92893 22 7.28595 22 12C22 16.714 22 19.0711 20.5355 20.5355C19.0711 22 16.714 22 12 22C7.28595 22 4.92893 22 3.46447 20.5355C2 19.0711 2 16.714 2 12Z" stroke="currentColor" strokeWidth="1.5"/>
    <path d="M6 15.8L7.14286 17L10 14" stroke="currentColor" strokeWidth="1.5" strokeLinecap="round" strokeLinejoin="round"/>
    <path d="M6 8.8L7.14286 10L10 7" stroke="currentColor" strokeWidth="1.5" strokeLinecap="round" strokeLinejoin="round"/>
    <path d="M13 9L18 9" stroke="currentColor" strokeWidth="1.5" strokeLinecap="round"/>
    <path d="M13 16L18 16" stroke="currentColor" strokeWidth="1.5" strokeLinecap="round"/>
  </symbol>

  <symbol id="plus-circle" viewBox="0 0 24 24" fill="none">
    <circle cx="12" cy="12" r="10" stroke="currentColor" strokeWidth="1.5"/>
    <path d="M15 12L12 12M12 12L9 12M12 12L12 9M12 12L12 15" stroke="currentColor" strokeWidth="1.5" strokeLinecap="round"/>
  </symbol>

  <symbol id="trash" viewBox="0 0 24 24" fill="none">
    <path d="M20.5001 6H3.5" stroke="currentColor" strokeWidth="1.5" strokeLinecap="round"/>
    <path d="M18.8332 8.5L18.3732 15.3991C18.1962 18.054 18.1077 19.3815 17.2427 20.1907C16.3777 21 15.0473 21 12.3865 21H11.6132C8.95235 21 7.62195 21 6.75694 20.1907C5.89194 19.3815 5.80344 18.054 5.62644 15.3991L5.1665 8.5" stroke="currentColor" strokeWidth="1.5" strokeLinecap="round"/>
    <path d="M6.5 6C6.55588 6 6.58382 6 6.60915 5.99936C7.43259 5.97849 8.15902 5.45491 8.43922 4.68032C8.44784 4.65649 8.45667 4.62999 8.47434 4.57697L8.57143 4.28571C8.65431 4.03708 8.69575 3.91276 8.75071 3.8072C8.97001 3.38607 9.37574 3.09364 9.84461 3.01877C9.96213 3 10.0932 3 10.3553 3H13.6447C13.9068 3 14.0379 3 14.1554 3.01877C14.6243 3.09364 15.03 3.38607 15.2493 3.8072C15.3043 3.91276 15.3457 4.03708 15.4286 4.28571L15.5257 4.57697C15.5433 4.62992 15.5522 4.65651 15.5608 4.68032C15.841 5.45491 16.5674 5.97849 17.3909 5.99936C17.4162 6 17.4441 6 17.5 6" stroke="currentColor" strokeWidth="1.5"/>
  </symbol>

  <symbol id="heart" viewBox="0 0 24 24" fill="none">
    <path d="M16.697 5.5c-1.222-.06-2.679.51-3.89 2.16l-.805 1.09-.806-1.09C9.984 6.01 8.526 5.44 7.304 5.5c-1.243.07-2.349.78-2.91 1.91-.552 1.12-.633 2.78.479 4.82 1.074 1.97 3.257 4.27 7.129 6.61 3.87-2.34 6.052-4.64 7.126-6.61 1.111-2.04 1.03-3.7.477-4.82-.561-1.13-1.666-1.84-2.908-1.91zm4.187 7.69c-1.351 2.48-4.001 5.12-8.379 7.67l-.503.3-.504-.3c-4.379-2.55-7.029-5.19-8.382-7.67-1.36-2.5-1.41-4.86-.514-6.67.887-1.79 2.647-2.91 4.601-3.01 1.651-.09 3.368.56 4.798 2.01 1.429-1.45 3.146-2.1 4.796-2.01 1.954.1 3.714 1.22 4.601 3.01.896 1.81.846 4.17-.514 6.67z" fill="currentColor"/>
  </symbol>

  <symbol id="heart-fill" viewBox="0 0 24 24" fill="none">
    <path d="M20.884 13.19c-1.351 2.48-4.001 5.12-8.379 7.67l-.503.3-.504-.3c-4.379-2.55-7.029-5.19-8.382-7.67-1.36-2.5-1.41-4.86-.514-6.67.887-1.79 2.647-2.91 4.601-3.01 1.651-.09 3.368.56 4.798 2.01 1.429-1.45 3.146-2.1 4.796-2.01 1.954.1 3.714 1.22 4.601 3.01.896 1.81.846 4.17-.514 6.67z" fill="currentColor"/>
  </symbol>

  <symbol id="reply" viewBox="0 0 24 24" fill="none">
    <path d="M2 10c0-4.42 3.584-8 8.005-8h4.366a8.13 8.13 0 0 1 8.129 8.13c0 2.96-1.607 5.68-4.196 7.11L10.25 21.7v-3.69h-.067A8.005 8.005 0 0 1 2 10m8.005-6a6.005 6.005 0 1 0 .133 12.01l.351-.01h1.761v2.3l5.087-2.81A6.127 6.127 0 0 0 14.371 4z" fill="currentColor"/>
  </symbol>

  <symbol id="reply-header" viewBox="0 0 24 24" fill="none">
    <path d="m14.046 2.242-4.148-.01h-.002c-4.374 0-7.8 3.427-7.8 7.802 0 4.098 3.186 7.206 7.465 7.37v3.828a.85.85 0 0 0 .12.403.744.744 0 0 0 1.034.23c.264-.169 6.473-4.14 8.088-5.507 1.902-1.61 3.04-3.97 3.043-6.312v-.017c-.006-4.367-3.43-7.787-7.8-7.788z" fill="currentColor"/>
  </symbol>

  <symbol id="repost" viewBox="0 0 24 24" fill="none">
    <path d="m4.5 3.88 4.432 4.14-1.364 1.46L5.5 7.55V16c0 1.1.896 2 2 2H13v2H7.5a4 4 0 0 1-4-4V7.55L1.432 9.48.068 8.02zM16.5 6H11V4h5.5a4 4 0 0 1 4 4v8.45l2.068-1.93 1.364 1.46-4.432 4.14-4.432-4.14 1.364-1.46 2.068 1.93V8c0-1.1-.896-2-2-2" fill="currentColor"/>
  </symbol>

  <symbol id="views" viewBox="0 0 20 20" fill="none">
    <path d="M7.292 17.5v-15h1.666v15zm7.708 0V7.083h1.667V17.5zm-11.667 0 .004-8.333h1.666L5 17.5zm7.707 0v-5.833h1.667V17.5z" fill="currentColor"/>
  </symbol>

  <symbol id="share" viewBox="0 0 24 24" fill="none">
    <path d="M18.5 2a3.5 3.5 0 0 0-3.484 3.838L8.082 9.537a3.5 3.5 0 1 0 .153 4.548l6.752 3.635a3.5 3.5 0 1 0 .985-1.741l-6.986-3.761a3.6 3.6 0 0 0-.031-.88l6.822-3.639A3.5 3.5 0 1 0 18.5 2M17 5.5a1.5 1.5 0 1 1 3 0 1.5 1.5 0 0 1-3 0M5.5 10.4a1.5 1.5 0 1 0 0 3 1.5 1.5 0 0 0 0-3m11.4 8.1a1.5 1.5 0 1 1 3 0 1.5 1.5 0 0 1-3 0" fill="currentColor" fill-rule="evenodd" clip-rule="evenodd"/>
  </symbol>

  <symbol id="pin" viewBox="0 0 24 24" fill="none" xmlns="http://www.w3.org/2000/svg">
<path d="M15.9894 4.9502L16.52 4.42014V4.42014L15.9894 4.9502ZM19.0716 8.03562L18.541 8.56568V8.56568L19.0716 8.03562ZM8.73837 19.429L8.20777 19.9591V19.9591L8.73837 19.429ZM4.62169 15.3081L5.15229 14.7781V14.7781L4.62169 15.3081ZM17.5669 14.9943L17.3032 14.2922V14.2922L17.5669 14.9943ZM15.6498 15.7146L15.9136 16.4167H15.9136L15.6498 15.7146ZM8.3322 8.38177L7.62798 8.12375V8.12375L8.3322 8.38177ZM9.02665 6.48636L9.73087 6.74438V6.74438L9.02665 6.48636ZM5.84504 10.6735L6.04438 11.3965V11.3965L5.84504 10.6735ZM7.30167 10.1351L6.86346 9.52646L6.86346 9.52646L7.30167 10.1351ZM7.67582 9.79038L8.24665 10.2768H8.24665L7.67582 9.79038ZM14.251 16.3805L14.742 16.9475L14.742 16.9475L14.251 16.3805ZM13.3806 18.2012L12.6574 18.0022V18.0022L13.3806 18.2012ZM13.9169 16.7466L13.3075 16.3094L13.3075 16.3094L13.9169 16.7466ZM2.71846 12.7552L1.96848 12.76L1.96848 12.76L2.71846 12.7552ZM2.93045 11.9521L2.28053 11.5778H2.28053L2.93045 11.9521ZM11.3052 21.3431L11.3064 20.5931H11.3064L11.3052 21.3431ZM12.0933 21.1347L11.7215 20.4833L11.7215 20.4833L12.0933 21.1347ZM11.6973 2.03606L11.8588 2.76845V2.76845L11.6973 2.03606ZM1.4694 21.4699C1.17666 21.763 1.1769 22.2379 1.46994 22.5306C1.76298 22.8233 2.23786 22.8231 2.5306 22.5301L1.4694 21.4699ZM7.18383 17.8721C7.47657 17.5791 7.47633 17.1042 7.18329 16.8114C6.89024 16.5187 6.41537 16.5189 6.12263 16.812L7.18383 17.8721ZM15.4588 5.48026L18.541 8.56568L19.6022 7.50556L16.52 4.42014L15.4588 5.48026ZM9.26897 18.8989L5.15229 14.7781L4.09109 15.8382L8.20777 19.9591L9.26897 18.8989ZM17.3032 14.2922L15.386 15.0125L15.9136 16.4167L17.8307 15.6964L17.3032 14.2922ZM9.03642 8.63979L9.73087 6.74438L8.32243 6.22834L7.62798 8.12375L9.03642 8.63979ZM6.04438 11.3965C6.75583 11.2003 7.29719 11.0625 7.73987 10.7438L6.86346 9.52646C6.69053 9.65097 6.46601 9.72428 5.6457 9.95044L6.04438 11.3965ZM7.62798 8.12375C7.33502 8.92332 7.24338 9.14153 7.10499 9.30391L8.24665 10.2768C8.60041 9.86175 8.7823 9.33337 9.03642 8.63979L7.62798 8.12375ZM7.73987 10.7438C7.92696 10.6091 8.09712 10.4523 8.24665 10.2768L7.10499 9.30391C7.0337 9.38757 6.9526 9.46229 6.86346 9.52646L7.73987 10.7438ZM15.386 15.0125C14.697 15.2714 14.1716 15.4571 13.76 15.8135L14.742 16.9475C14.9028 16.8082 15.1192 16.7152 15.9136 16.4167L15.386 15.0125ZM14.1037 18.4001C14.329 17.5813 14.4021 17.3569 14.5263 17.1838L13.3075 16.3094C12.9902 16.7517 12.8529 17.2919 12.6574 18.0022L14.1037 18.4001ZM13.76 15.8135C13.5903 15.9605 13.4384 16.1269 13.3075 16.3094L14.5263 17.1838C14.5887 17.0968 14.6611 17.0175 14.742 16.9475L13.76 15.8135ZM5.15229 14.7781C4.50615 14.1313 4.06799 13.691 3.78366 13.3338C3.49835 12.9753 3.46889 12.8201 3.46845 12.7505L1.96848 12.76C1.97215 13.3422 2.26127 13.8297 2.61002 14.2679C2.95976 14.7073 3.47115 15.2176 4.09109 15.8382L5.15229 14.7781ZM5.6457 9.95044C4.80048 10.1835 4.10396 10.3743 3.58296 10.5835C3.06341 10.792 2.57116 11.0732 2.28053 11.5778L3.58038 12.3264C3.615 12.2663 3.71693 12.146 4.1418 11.9755C4.56523 11.8055 5.16337 11.6394 6.04438 11.3965L5.6457 9.95044ZM3.46845 12.7505C3.46751 12.6016 3.50616 12.4553 3.58038 12.3264L2.28053 11.5778C2.07354 11.9372 1.96586 12.3452 1.96848 12.76L3.46845 12.7505ZM8.20777 19.9591C8.83164 20.5836 9.34464 21.0987 9.78647 21.4506C10.227 21.8015 10.7179 22.0922 11.3041 22.0931L11.3064 20.5931C11.2369 20.593 11.0814 20.5644 10.721 20.2773C10.3618 19.9912 9.91923 19.5499 9.26897 18.8989L8.20777 19.9591ZM12.6574 18.0022C12.4133 18.8897 12.2462 19.4924 12.0751 19.9188C11.9033 20.3467 11.7821 20.4487 11.7215 20.4833L12.465 21.7861C12.974 21.4956 13.2573 21.0004 13.4671 20.4775C13.6776 19.9532 13.8694 19.2516 14.1037 18.4001L12.6574 18.0022ZM11.3041 22.0931C11.7112 22.0937 12.1114 21.9879 12.465 21.7861L11.7215 20.4833C11.595 20.5555 11.4519 20.5933 11.3064 20.5931L11.3041 22.0931ZM18.541 8.56568C19.6045 9.63022 20.3403 10.3695 20.7917 10.9788C21.2353 11.5774 21.2863 11.8959 21.2321 12.1464L22.6982 12.4634C22.8881 11.5854 22.5382 10.8162 21.9969 10.0857C21.4635 9.36592 20.6305 8.53486 19.6022 7.50556L18.541 8.56568ZM17.8307 15.6964C19.1921 15.1849 20.294 14.773 21.0771 14.3384C21.8718 13.8973 22.5083 13.3416 22.6982 12.4634L21.2321 12.1464C21.178 12.3968 21.0001 12.6655 20.3491 13.0268C19.6865 13.3946 18.7112 13.7632 17.3032 14.2922L17.8307 15.6964ZM16.52 4.42014C15.4841 3.3832 14.6481 2.54353 13.9246 2.00638C13.1908 1.46165 12.4175 1.10912 11.5357 1.30367L11.8588 2.76845C12.1086 2.71335 12.4277 2.7633 13.0304 3.21075C13.6433 3.66579 14.3876 4.40801 15.4588 5.48026L16.52 4.42014ZM9.73087 6.74438C10.2525 5.32075 10.6161 4.33403 10.9812 3.66315C11.3402 3.00338 11.609 2.82357 11.8588 2.76845L11.5357 1.30367C10.654 1.49819 10.1005 2.14332 9.66362 2.94618C9.23278 3.73793 8.82688 4.85154 8.32243 6.22834L9.73087 6.74438ZM2.5306 22.5301L7.18383 17.8721L6.12263 16.812L1.4694 21.4699L2.5306 22.5301Z" fill="currentColor"/>
</symbol>


  <symbol id="edit" viewBox="0 0 24 24" fill="none">
    <path d="M14.0992 2.39109C15.6207 0.869636 18.0875 0.869636 19.6089 2.39109C21.1304 3.91255 21.1304 6.37932 19.6089 7.90077L12.0149 15.4948C11.5869 15.9228 11.3255 16.1842 11.0342 16.4115C10.691 16.6792 10.3196 16.9087 9.92667 17.096C9.59315 17.2549 9.24244 17.3718 8.66818 17.5632L5.99553 18.4541L5.35386 18.668C4.77951 18.8594 4.14629 18.7099 3.7182 18.2818C3.2901 17.8537 3.14062 17.2205 3.33207 16.6462L4.43683 13.3318C4.62822 12.7576 4.7451 12.4069 4.90405 12.0734C5.09132 11.6804 5.32084 11.309 5.58856 10.9658C5.81578 10.6745 6.07719 10.4131 6.50525 9.98509L14.0992 2.39109ZM5.96092 16.8845L5.11556 16.0391L5.84398 13.8538C6.05606 13.2176 6.14366 12.9589 6.25814 12.7187C6.39854 12.4241 6.57061 12.1457 6.77132 11.8883C6.93497 11.6785 7.12718 11.4845 7.60141 11.0102L13.4924 5.11927C13.7355 5.72927 14.147 6.46549 14.8408 7.15927C15.5345 7.85306 16.2708 8.26447 16.8807 8.50764L10.9898 14.3986C10.5155 14.8728 10.3215 15.065 10.1117 15.2287C9.85436 15.4294 9.57594 15.6015 9.28134 15.7419C9.04113 15.8564 8.78244 15.944 8.14619 16.156L5.96092 16.8845ZM18.076 7.31241C17.9521 7.28522 17.7973 7.24432 17.6213 7.18325C17.1373 7.01532 16.5006 6.69778 15.9014 6.09861C15.3022 5.49944 14.9847 4.86276 14.8168 4.37873C14.7557 4.2027 14.7148 4.04787 14.6876 3.92404L15.1599 3.45175C16.0956 2.51608 17.6126 2.51608 18.5483 3.45175C19.4839 4.38742 19.4839 5.90444 18.5483 6.84011L18.076 7.31241ZM3.25002 22C3.25002 21.5858 3.58581 21.25 4.00002 21.25H20V22.75H4.00002C3.58581 22.75 3.25002 22.4142 3.25002 22Z" fill-rule="evenodd" clip-rule="evenodd" fill="currentColor"/>
  </symbol>

  <symbol id="reply-permission" viewBox="0 0 24 24" fill="none">
    <path d="M22.75 12C22.75 6.06294 17.9371 1.25 12 1.25C6.06294 1.25 1.25 6.06294 1.25 12C1.25 13.7183 1.65371 15.3445 2.37213 16.7869C2.47933 17.0021 2.50208 17.2219 2.4526 17.4068L1.857 19.6328C1.44927 21.1566 2.84337 22.5507 4.3672 22.143L6.59324 21.5474C6.77814 21.4979 6.99791 21.5207 7.21315 21.6279C8.65553 22.3463 10.2817 22.75 12 22.75C17.9371 22.75 22.75 17.9371 22.75 12ZM12 2.75C17.1086 2.75 21.25 6.89137 21.25 12C21.25 17.1086 17.1086 21.25 12 21.25C10.5189 21.25 9.12121 20.9025 7.88191 20.2852C7.38451 20.0375 6.78973 19.9421 6.20553 20.0984L3.97949 20.694C3.57066 20.8034 3.19663 20.4293 3.30602 20.0205L3.90163 17.7945C4.05794 17.2103 3.96254 16.6155 3.7148 16.1181C3.09752 14.8788 2.75 13.4811 2.75 12C2.75 6.89137 6.89137 2.75 12 2.75Z" fill="currentColor"/>
  </symbol>

  <symbol id="follow" viewBox="0 0 24 24" fill="none">
    <path d="M7.25013 6C7.25013 3.37665 9.37678 1.25 12.0001 1.25C14.6235 1.25 16.7501 3.37665 16.7501 6C16.7501 8.62335 14.6235 10.75 12.0001 10.75C9.37678 10.75 7.25013 8.62335 7.25013 6ZM12.0001 2.75C10.2052 2.75 8.75013 4.20507 8.75013 6C8.75013 7.79493 10.2052 9.25 12.0001 9.25C13.7951 9.25 15.2501 7.79493 15.2501 6C15.2501 4.20507 13.7951 2.75 12.0001 2.75Z" fill-rule="evenodd" clip-rule="evenodd" fill="currentColor"/>
    <path d="M18.0001 13.9167C18.4143 13.9167 18.7501 14.2524 18.7501 14.6667V15.25H19.3333C19.7475 15.25 20.0833 15.5858 20.0833 16C20.0833 16.4142 19.7475 16.75 19.3333 16.75H18.7501V17.3333C18.7501 17.7475 18.4143 18.0833 18.0001 18.0833C17.5859 18.0833 17.2501 17.7475 17.2501 17.3333V16.75H16.6666C16.2524 16.75 15.9166 16.4142 15.9166 16C15.9166 15.5858 16.2524 15.25 16.6666 15.25H17.2501V14.6667C17.2501 14.2524 17.5859 13.9167 18.0001 13.9167Z" fill="currentColor"/>
    <path d="M14.7748 12.5129C13.9021 12.3421 12.9686 12.25 12.0001 12.25C9.68658 12.25 7.55506 12.7759 5.97558 13.6643C4.41962 14.5396 3.25013 15.8661 3.25013 17.5L3.25007 17.602C3.24894 18.7638 3.24752 20.222 4.52655 21.2635C5.15602 21.7761 6.03661 22.1406 7.22634 22.3815C8.41939 22.6229 9.97436 22.75 12.0001 22.75C14.8682 22.75 16.81 22.4961 18.1197 22.0085C19.2986 21.5697 19.9974 20.9266 20.3705 20.1172C21.7928 19.2966 22.7501 17.7601 22.7501 16C22.7501 13.3766 20.6235 11.25 18.0001 11.25C16.755 11.25 15.6218 11.7291 14.7748 12.5129ZM6.71098 14.9717C5.37151 15.7251 4.75013 16.6487 4.75013 17.5C4.75013 18.8078 4.79045 19.544 5.47372 20.1004C5.84425 20.4022 6.46366 20.6967 7.52392 20.9113C8.58087 21.1252 10.0259 21.25 12.0001 21.25C14.5781 21.25 16.2402 21.0366 17.311 20.7004C15.0142 20.3666 13.2501 18.3893 13.2501 16C13.2501 15.2322 13.4323 14.5069 13.7558 13.865C13.1941 13.79 12.6062 13.75 12.0001 13.75C9.89541 13.75 8.02693 14.2315 6.71098 14.9717ZM14.7501 16C14.7501 14.2051 16.2052 12.75 18.0001 12.75C19.7951 12.75 21.2501 14.2051 21.2501 16C21.2501 17.7949 19.7951 19.25 18.0001 19.25C16.2052 19.25 14.7501 17.7949 14.7501 16Z" fill-rule="evenodd" clip-rule="evenodd" fill="currentColor"/>
  </symbol>

  <symbol id="unfollow" viewBox="0 0 24 24" fill="none">
    <path d="M12.0001 1.25C9.37678 1.25 7.25013 3.37665 7.25013 6C7.25013 8.62335 9.37678 10.75 12.0001 10.75C14.6235 10.75 16.7501 8.62335 16.7501 6C16.7501 3.37665 14.6235 1.25 12.0001 1.25ZM8.75013 6C8.75013 4.20507 10.2052 2.75 12.0001 2.75C13.7951 2.75 15.2501 4.20507 15.2501 6C15.2501 7.79493 13.7951 9.25 12.0001 9.25C10.2052 9.25 8.75013 7.79493 8.75013 6Z" fill-rule="evenodd" clip-rule="evenodd" fill="currentColor"/>
    <path d="M17.0001 15.25C16.5859 15.25 16.2501 15.5858 16.2501 16C16.2501 16.4142 16.5859 16.75 17.0001 16.75H19.0001C19.4143 16.75 19.7501 16.4142 19.7501 16C19.7501 15.5858 19.4143 15.25 19.0001 15.25H17.0001Z" fill="currentColor"/>
    <path d="M12.0001 12.25C12.9686 12.25 13.9021 12.3421 14.7748 12.5129C15.6218 11.7291 16.755 11.25 18.0001 11.25C20.6235 11.25 22.7501 13.3766 22.7501 16C22.7501 17.7601 21.7928 19.2966 20.3705 20.1172C19.9974 20.9266 19.2986 21.5697 18.1197 22.0085C16.81 22.4961 14.8682 22.75 12.0001 22.75C9.97436 22.75 8.41939 22.6229 7.22634 22.3815C6.03661 22.1406 5.15602 21.7761 4.52655 21.2635C3.24752 20.222 3.24894 18.7638 3.25007 17.602L3.25013 17.5C3.25013 15.8661 4.41962 14.5396 5.97558 13.6643C7.55506 12.7759 9.68658 12.25 12.0001 12.25ZM4.75013 17.5C4.75013 16.6487 5.37151 15.7251 6.71098 14.9717C8.02693 14.2315 9.89541 13.75 12.0001 13.75C12.6062 13.75 13.1941 13.79 13.7558 13.865C13.4323 14.5069 13.2501 15.2322 13.2501 16C13.2501 18.3893 15.0142 20.3666 17.311 20.7004C16.2402 21.0366 14.5781 21.25 12.0001 21.25C10.0259 21.25 8.58087 21.1252 7.52392 20.9113C6.46366 20.6967 5.84425 20.4022 5.47372 20.1004C4.79045 19.544 4.75013 18.8078 4.75013 17.5ZM18.0001 12.75C16.2052 12.75 14.7501 14.2051 14.7501 16C14.7501 17.7949 16.2052 19.25 18.0001 19.25C19.7951 19.25 21.2501 17.7949 21.2501 16C21.2501 14.2051 19.7951 12.75 18.0001 12.75Z" fill-rule="evenodd" clip-rule="evenodd" fill="currentColor"/>
  </symbol>

  <symbol id="block" viewBox="0 0 24 24" fill="none">
    <path d="M12 1.25C6.06294 1.25 1.25 6.06294 1.25 12C1.25 17.9371 6.06294 22.75 12 22.75C17.9371 22.75 22.75 17.9371 22.75 12C22.75 6.06294 17.9371 1.25 12 1.25ZM2.75 12C2.75 6.89137 6.89137 2.75 12 2.75C14.2845 2.75 16.3756 3.57817 17.9894 4.95066C17.9827 4.95685 17.9762 4.96319 17.9697 4.96967L4.96969 17.9694C4.96317 17.976 4.95679 17.9826 4.95056 17.9893C3.57813 16.3755 2.75 14.2845 2.75 12ZM6.0105 19.0492C7.62432 20.4218 9.71544 21.25 12 21.25C17.1086 21.25 21.25 17.1086 21.25 12C21.25 9.7155 20.4218 7.62442 19.0493 6.01062C19.0431 6.01728 19.0368 6.02386 19.0303 6.03034L6.03034 19.0301C6.02382 19.0366 6.0172 19.043 6.0105 19.0492Z" fill-rule="evenodd" clip-rule="evenodd" fill="currentColor"/>
  </symbol>

  <symbol id="report" viewBox="0 0 24 24" fill="none">
    <path d="M5 1.25C5.41421 1.25 5.75 1.58579 5.75 2V3.08515L7.32358 2.77043C9.11678 2.41179 10.9756 2.58245 12.6735 3.26161L12.8771 3.34307C14.2919 3.90898 15.849 4.01466 17.3273 3.64509C18.5579 3.33744 19.75 4.2682 19.75 5.53669V12.9037C19.75 13.8922 19.0773 14.7538 18.1183 14.9935L17.9039 15.0471C15.9814 15.5277 13.9563 15.3903 12.1164 14.6543C10.6886 14.0832 9.12562 13.9397 7.61776 14.2413L5.75 14.6149V22C5.75 22.4142 5.41421 22.75 5 22.75C4.58579 22.75 4.25 22.4142 4.25 22V2C4.25 1.58579 4.58579 1.25 5 1.25ZM5.75 13.0851L7.32358 12.7704C9.11678 12.4118 10.9756 12.5825 12.6735 13.2616C14.2206 13.8805 15.9235 13.996 17.5401 13.5919L17.7545 13.5383C18.0457 13.4655 18.25 13.2039 18.25 12.9037V5.53669C18.25 5.24405 17.975 5.02933 17.6911 5.10031C15.9069 5.54635 14.0276 5.4188 12.32 4.73578L12.1164 4.65433C10.6886 4.08323 9.12562 3.93973 7.61776 4.2413L5.75 4.61485V13.0851Z" fill-rule="evenodd" clip-rule="evenodd" fill="currentColor"/>
  </symbol>

  <symbol id="delete-fill" viewBox="0 0 24 24" fill="none">
    <path d="M12 2.75C11.0215 2.75 10.1871 3.37503 9.87787 4.24993C9.73983 4.64047 9.31134 4.84517 8.9208 4.70713C8.53026 4.56909 8.32557 4.1406 8.46361 3.75007C8.97804 2.29459 10.3661 1.25 12 1.25C13.634 1.25 15.022 2.29459 15.5365 3.75007C15.6745 4.1406 15.4698 4.56909 15.0793 4.70713C14.6887 4.84517 14.2602 4.64047 14.1222 4.24993C13.813 3.37503 12.9785 2.75 12 2.75Z" fill="currentColor"/>
    <path d="M2.75 6C2.75 5.58579 3.08579 5.25 3.5 5.25H20.5001C20.9143 5.25 21.2501 5.58579 21.2501 6C21.2501 6.41421 20.9143 6.75 20.5001 6.75H3.5C3.08579 6.75 2.75 6.41421 2.75 6Z" fill="currentColor"/>
    <path d="M5.91508 8.45011C5.88753 8.03681 5.53015 7.72411 5.11686 7.75166C4.70356 7.77921 4.39085 8.13659 4.41841 8.54989L4.88186 15.5016C4.96735 16.7844 5.03641 17.8205 5.19838 18.6336C5.36678 19.4789 5.6532 20.185 6.2448 20.7384C6.83639 21.2919 7.55994 21.5307 8.41459 21.6425C9.23663 21.75 10.2751 21.75 11.5607 21.75H12.4395C13.7251 21.75 14.7635 21.75 15.5856 21.6425C16.4402 21.5307 17.1638 21.2919 17.7554 20.7384C18.347 20.185 18.6334 19.4789 18.8018 18.6336C18.9637 17.8205 19.0328 16.7844 19.1183 15.5016L19.5818 8.54989C19.6093 8.13659 19.2966 7.77921 18.8833 7.75166C18.47 7.72411 18.1126 8.03681 18.0851 8.45011L17.6251 15.3492C17.5353 16.6971 17.4712 17.6349 17.3307 18.3405C17.1943 19.025 17.004 19.3873 16.7306 19.6431C16.4572 19.8988 16.083 20.0647 15.391 20.1552C14.6776 20.2485 13.7376 20.25 12.3868 20.25H11.6134C10.2626 20.25 9.32255 20.2485 8.60915 20.1552C7.91715 20.0647 7.54299 19.8988 7.26957 19.6431C6.99616 19.3873 6.80583 19.025 6.66948 18.3405C6.52891 17.6349 6.46488 16.6971 6.37503 15.3492L5.91508 8.45011Z" fill="currentColor"/>
    <path d="M9.42546 10.2537C9.83762 10.2125 10.2051 10.5132 10.2464 10.9254L10.7464 15.9254C10.7876 16.3375 10.4869 16.7051 10.0747 16.7463C9.66256 16.7875 9.29502 16.4868 9.25381 16.0746L8.75381 11.0746C8.71259 10.6625 9.0133 10.2949 9.42546 10.2537Z" fill="currentColor"/>
    <path d="M15.2464 11.0746C15.2876 10.6625 14.9869 10.2949 14.5747 10.2537C14.1626 10.2125 13.795 10.5132 13.7538 10.9254L13.2538 15.9254C13.2126 16.3375 13.5133 16.7051 13.9255 16.7463C14.3376 16.7875 14.7051 16.4868 14.7464 16.0746L15.2464 11.0746Z" fill="currentColor"/>
  </symbol>

  <symbol id="chevron-left" viewBox="0 0 24 24" fill="none">
    <path d="M15 5L9 12L15 19" stroke="currentColor" strokeWidth="1.5" strokeLinecap="round" strokeLinejoin="round"/>
  </symbol>

  <symbol id="chevron-down" viewBox="0 0 24 24" fill="none">
    <path d="M19 9L12 15L5 9" stroke="currentColor" strokeWidth="1.5" strokeLinecap="round" strokeLinejoin="round"/>
  </symbol>

  <symbol id="calendar" viewBox="0 0 24 24" fill="none">
    <path d="M2 12C2 8.22876 2 6.34315 3.17157 5.17157C4.34315 4 6.22876 4 10 4H14C17.7712 4 19.6569 4 20.8284 5.17157C22 6.34315 22 8.22876 22 12V14C22 17.7712 22 19.6569 20.8284 20.8284C19.6569 22 17.7712 22 14 22H10C6.22876 22 4.34315 22 3.17157 20.8284C2 19.6569 2 17.7712 2 14V12Z" stroke="currentColor" strokeWidth="1.5"/>
    <path d="M7 4V2.5" stroke="currentColor" strokeWidth="1.5" strokeLinecap="round"/>
    <path d="M17 4V2.5" stroke="currentColor" strokeWidth="1.5" strokeLinecap="round"/>
    <path d="M2.5 9H21.5" stroke="currentColor" strokeWidth="1.5" strokeLinecap="round"/>
  </symbol>

  <symbol id="briefcase" viewBox="0 0 24 24" fill="none">
    <path d="M14 6H10C8.64413 6 7.53199 6 6.60915 6.05445C4.96519 6.15144 3.92193 6.42122 3.17157 7.17157C2 8.34315 2 10.2288 2 14C2 17.7712 2 19.6569 3.17157 20.8284C4.34315 22 6.22876 22 10 22H14C17.7712 22 19.6569 22 20.8284 20.8284C22 19.6569 22 17.7712 22 14C22 10.2288 22 8.34315 20.8284 7.17157C20.0781 6.42122 19.0348 6.15144 17.3909 6.05445C16.468 6 15.3559 6 14 6Z" stroke="currentColor" strokeWidth="1.5"/>
    <path d="M6.60938 6.05445C7.43282 6.03358 8.15925 5.45491 8.43944 4.68032C8.44806 4.65649 8.4569 4.62999 8.47457 4.57697L8.50023 4.5C8.54241 4.37344 8.56351 4.31014 8.58608 4.254C8.87427 3.53712 9.54961 3.05037 10.3208 3.00366C10.3812 3 10.4479 3 10.5814 3H13.4191C13.5525 3 13.6192 3 13.6796 3.00366C14.4508 3.05037 15.1262 3.53712 15.4144 4.254C15.4369 4.31014 15.458 4.37343 15.5002 4.5L15.5259 4.57697C15.5435 4.62992 15.5524 4.65651 15.561 4.68032C15.8412 5.45491 16.5676 6.03358 17.3911 6.05445" stroke="currentColor" strokeWidth="1.5"/>
    <path d="M21.6618 8.71973C18.6519 10.6761 17.147 11.6543 15.5605 12.1472C13.2416 12.8677 10.7586 12.8677 8.43963 12.1472C6.85313 11.6543 5.34822 10.6761 2.33838 8.71973" stroke="currentColor" strokeWidth="1.5" strokeLinecap="round"/>
    <path d="M8 11V13" stroke="currentColor" strokeWidth="1.5" strokeLinecap="round"/>
    <path d="M16 11V13" stroke="currentColor" strokeWidth="1.5" strokeLinecap="round"/>
  </symbol>

  <symbol id="location-pin" viewBox="0 0 24 24" fill="none">
    <path d="M4 10.1433C4 5.64588 7.58172 2 12 2C16.4183 2 20 5.64588 20 10.1433C20 14.6055 17.4467 19.8124 13.4629 21.6744C12.5343 22.1085 11.4657 22.1085 10.5371 21.6744C6.55332 19.8124 4 14.6055 4 10.1433Z" stroke="currentColor" strokeWidth="1.5"/>
    <circle cx="12" cy="10" r="3" stroke="currentColor" strokeWidth="1.5"/>
  </symbol>

  <symbol id="text-document" viewBox="0 0 24 24" fill="none">
    <path d="M3 10C3 6.22876 3 4.34315 4.17157 3.17157C5.34315 2 7.22876 2 11 2H13C16.7712 2 18.6569 2 19.8284 3.17157C21 4.34315 21 6.22876 21 10V14C21 17.7712 21 19.6569 19.8284 20.8284C18.6569 22 16.7712 22 13 22H11C7.22876 22 5.34315 22 4.17157 20.8284C3 19.6569 3 17.7712 3 14V10Z" stroke="currentColor" strokeWidth="1.5"/>
    <path d="M8 12H16" stroke="currentColor" strokeWidth="1.5" strokeLinecap="round"/>
    <path d="M8 8H16" stroke="currentColor" strokeWidth="1.5" strokeLinecap="round"/>
    <path d="M8 16H13" stroke="currentColor" strokeWidth="1.5" strokeLinecap="round"/>
  </symbol>

  <symbol id="camera" viewBox="0 0 24 24" fill="none">
    <circle cx="12" cy="13" r="3" stroke="currentColor" strokeWidth="1.5"/>
    <path d="M9.77778 21H14.2222C17.3433 21 18.9038 21 20.0248 20.2646C20.51 19.9462 20.9267 19.5371 21.251 19.0607C22 17.9601 22 16.4279 22 13.3636C22 10.2994 22 8.76721 21.251 7.6666C20.9267 7.19014 20.51 6.78104 20.0248 6.46268C19.3044 5.99013 18.4027 5.82123 17.022 5.76086C16.3631 5.76086 15.7959 5.27068 15.6667 4.63636C15.4728 3.68489 14.6219 3 13.6337 3H10.3663C9.37805 3 8.52715 3.68489 8.33333 4.63636C8.20412 5.27068 7.63685 5.76086 6.978 5.76086C5.59733 5.82123 4.69555 5.99013 3.97524 6.46268C3.48995 6.78104 3.07328 7.19014 2.74902 7.6666C2 8.76721 2 10.2994 2 13.3636C2 16.4279 2 17.9601 2.74902 19.0607C3.07328 19.5371 3.48995 19.9462 3.97524 20.2646C5.09624 21 6.65675 21 9.77778 21Z" stroke="currentColor" strokeWidth="1.5"/>
    <path d="M19 10H18" stroke="currentColor" strokeWidth="1.5" strokeLinecap="round"/>
  </symbol>

  <symbol id="gender" viewBox="0 0 24 24" fill="none">
    <circle cx="9" cy="6" r="4" stroke="currentColor" strokeWidth="1.5"/>
    <path d="M15 9C16.6569 9 18 7.65685 18 6C18 4.34315 16.6569 3 15 3" stroke="currentColor" strokeWidth="1.5" strokeLinecap="round"/>
    <ellipse cx="9" cy="17" rx="7" ry="4" stroke="currentColor" strokeWidth="1.5"/>
    <path d="M18 14C19.7542 14.3847 21 15.3589 21 16.5C21 17.5293 19.9863 18.4229 18.5 18.8704" stroke="currentColor" strokeWidth="1.5" strokeLinecap="round"/>
  </symbol>

  <symbol id="globe-cursor" viewBox="0 0 24 24" fill="none">
    <circle cx="12" cy="12" r="10" stroke="currentColor" strokeWidth="1.5"/>
    <path d="M6 4.71053C6.78024 5.42105 8.38755 7.36316 8.57481 9.44737C8.74984 11.3955 10.0357 12.9786 12 13C12.7549 13.0082 13.5183 12.4629 13.5164 11.708C13.5158 11.4745 13.4773 11.2358 13.417 11.0163C13.3331 10.7108 13.3257 10.3595 13.5 10C14.1099 8.74254 15.3094 8.40477 16.2599 7.72186C16.6814 7.41898 17.0659 7.09947 17.2355 6.84211C17.7037 6.13158 18.1718 4.71053 17.9377 4" stroke="currentColor" strokeWidth="1.5"/>
    <path d="M22 13C21.6706 13.931 21.4375 16.375 17.7182 16.4138C17.7182 16.4138 14.4246 16.4138 13.4365 18.2759C12.646 19.7655 13.1071 21.3793 13.4365 22" stroke="currentColor" strokeWidth="1.5"/>
  </symbol>

  <symbol id="birthday-cake" viewBox="0 0 24 24" fill="none">
    <path d="M14.5 19.5H9.5M14.5 19.5C14.5 18.7865 14.5 18.4297 14.5381 18.193C14.6609 17.4296 14.6824 17.3815 15.1692 16.7807C15.3201 16.5945 15.8805 16.0927 17.0012 15.0892C18.5349 13.7159 19.5 11.7206 19.5 9.5C19.5 5.35786 16.1421 2 12 2C7.85786 2 4.5 5.35786 4.5 9.5C4.5 11.7206 5.4651 13.7159 6.99876 15.0892C8.11945 16.0927 8.67987 16.5945 8.83082 16.7807C9.31762 17.3815 9.3391 17.4296 9.46192 18.193C9.5 18.4297 9.5 18.7865 9.5 19.5M14.5 19.5C14.5 20.4346 14.5 20.9019 14.299 21.25C14.1674 21.478 13.978 21.6674 13.75 21.799C13.4019 22 12.9346 22 12 22C11.0654 22 10.5981 22 10.25 21.799C10.022 21.6674 9.83261 21.478 9.70096 21.25C9.5 20.9019 9.5 20.4346 9.5 19.5" stroke="currentColor" strokeWidth="1.5"/>
    <path d="M12 17V15" stroke="currentColor" strokeWidth="1.5" strokeLinecap="round"/>
    <path d="M13.7324 14C13.3866 14.5978 12.7403 15 12 15C11.2597 15 10.6134 14.5978 10.2676 14" stroke="currentColor" strokeWidth="1.5" strokeLinecap="round"/>
  </symbol>

  <symbol id="flag-pole" viewBox="0 0 24 24" fill="none">
    <path d="M5 22V14M5 14V4M5 14L7.47067 13.5059C9.1212 13.1758 10.8321 13.3328 12.3949 13.958C14.0885 14.6354 15.9524 14.7619 17.722 14.3195L17.8221 14.2945C18.4082 14.148 18.6861 13.4769 18.3753 12.9589L16.8147 10.3578C16.4732 9.78863 16.3024 9.50405 16.2619 9.19451C16.2451 9.06539 16.2451 8.93461 16.2619 8.80549C16.3024 8.49595 16.4732 8.21137 16.8147 7.64221L18.0932 5.51132C18.4278 4.9536 17.9211 4.26972 17.2901 4.42746C15.8013 4.79967 14.2331 4.69323 12.8082 4.12329L12.3949 3.95797C10.8321 3.33284 9.1212 3.17576 7.47067 3.50587L5 4M5 4V2" stroke="currentColor" strokeWidth="1.5" strokeLinecap="round"/>
  </symbol>

  <symbol id="mark-all-read" viewBox="0 0 24 24" fill="none">
    <path d="M20.0299 2.47998L4.17993 18.33" stroke="currentColor" strokeWidth="1.5" strokeLinecap="round" strokeLinejoin="round"/>
    <path d="M5.25008 12.9999C4.83008 12.0299 4.58008 10.9799 4.58008 9.89993C4.58008 4.98993 8.80008 1.11993 13.6001 2.16993C15.0601 2.48993 16.3601 3.26993 17.3601 4.34993" stroke="currentColor" strokeWidth="1.5" strokeLinecap="round" strokeLinejoin="round"/>
    <path d="M19.0599 7.30005C20.2799 11.18 18.3099 15.08 15.5199 16.87V18.03C15.5199 18.32 15.6199 18.99 14.6199 18.99H9.41991C8.38991 18.99 8.51991 18.56 8.51991 18.03V16.87C8.03991 16.57 7.58991 16.2 7.15991 15.77" stroke="currentColor" strokeWidth="1.5" strokeLinecap="round" strokeLinejoin="round"/>
    <path d="M8.5 22C10.79 21.35 13.21 21.35 15.5 22" stroke="currentColor" strokeWidth="1.5" strokeLinecap="round" strokeLinejoin="round"/>
  </symbol>

  <symbol id="at-sign" viewBox="0 0 24 24" fill="none">
    <path d="M12 10.35C12.9113 10.35 13.65 11.0887 13.65 12C13.65 12.9113 12.9113 13.65 12 13.65C11.0887 13.65 10.35 12.9113 10.35 12C10.35 11.0887 11.0887 10.35 12 10.35Z" fill="currentColor"/>
    <path d="M3.46447 3.46447C2 4.92893 2 7.28595 2 12C2 16.714 2 19.0711 3.46447 20.5355C4.92893 22 7.28595 22 12 22C16.714 22 19.0711 22 20.5355 20.5355C22 19.0711 22 16.714 22 12C22 7.28595 22 4.92893 20.5355 3.46447C19.0711 2 16.714 2 12 2C7.28595 2 4.92893 2 3.46447 3.46447ZM6.75 12C6.75 9.1005 9.1005 6.75 12 6.75C14.8995 6.75 17.25 9.1005 17.25 12C17.25 12.6327 17.1384 13.2376 16.9345 13.7973C16.8991 13.8944 16.8295 13.9989 16.7183 14.1015L16.6377 14.1758C16.3369 14.4533 15.8853 14.4888 15.5448 14.2618C15.2981 14.0974 15.15 13.8206 15.15 13.5241V12C15.15 10.2603 13.7397 8.85 12 8.85C10.2603 8.85 8.85 10.2603 8.85 12C8.85 13.7397 10.2603 15.15 12 15.15C12.7017 15.15 13.3499 14.9205 13.8735 14.5325C14.0557 14.9233 14.3431 15.2635 14.7127 15.5099C15.6294 16.121 16.8451 16.0252 17.6548 15.2783L17.7354 15.204C17.9855 14.9732 18.211 14.6756 18.3439 14.3108C18.6069 13.5889 18.75 12.8103 18.75 12C18.75 8.27208 15.7279 5.25 12 5.25C8.27208 5.25 5.25 8.27208 5.25 12C5.25 15.7279 8.27208 18.75 12 18.75C12.4142 18.75 12.75 18.4142 12.75 18C12.75 17.5858 12.4142 17.25 12 17.25C9.1005 17.25 6.75 14.8995 6.75 12Z" fill-rule="evenodd" clip-rule="evenodd" fill="currentColor"/>
  </symbol>

  <symbol id="quote-marks" viewBox="0 0 24 24" fill="none">
    <path d="M16.19 2H7.81C4.17 2 2 4.17 2 7.81V16.18C2 19.83 4.17 22 7.81 22H16.18C19.82 22 21.99 19.83 21.99 16.19V7.81C22 4.17 19.83 2 16.19 2ZM11.61 11.84C11.61 14.92 10.94 15.61 9.15 16.67C9.03 16.74 8.9 16.77 8.77 16.77C8.51 16.77 8.26 16.64 8.12 16.4C7.91 16.04 8.03 15.58 8.38 15.37C9.59 14.65 10.01 14.39 10.09 12.58H8.19C7.1 12.58 6.25 11.73 6.25 10.64V9.16C6.25 8.07 7.1 7.22 8.19 7.22H9.68C10.75 7.22 11.62 8.09 11.62 9.16V11.84H11.61ZM17.75 11.84C17.75 14.92 17.08 15.61 15.29 16.67C15.17 16.74 15.04 16.77 14.91 16.77C14.65 16.77 14.4 16.64 14.26 16.4C14.05 16.04 14.17 15.58 14.52 15.37C15.73 14.65 16.15 14.39 16.23 12.58H14.32C13.23 12.58 12.38 11.73 12.38 10.64V9.16C12.38 8.07 13.23 7.22 14.32 7.22H15.81C16.88 7.22 17.75 8.09 17.75 9.16V11.84Z" fill="currentColor"/>
  </symbol>

  <symbol id="alert-triangle" viewBox="0 0 24 24" fill="none">
    <path d="m23.098 17.97-8.62-14.93c-.54-.94-1.51-1.5-2.6-1.5h-.02c-1.09 0-2.06.58-2.6 1.53L.888 18c-.53.94-.52 2.06.03 2.99a2.93 2.93 0 0 0 2.55 1.47h17.07c1.06 0 2.02-.55 2.56-1.48.54-.94.54-2.07 0-3.01" fill="currentColor"/>
    <path d="M11.998 18.89a1.375 1.375 0 0 1 0-2.75c.76 0 1.37.61 1.37 1.37s-.61 1.38-1.37 1.38m1.72-9.03-.93 4.39c-.07.38-.4.64-.79.64s-.71-.26-.8-.64l-.93-4.39c-.1-.52.03-1.06.36-1.47.67-.83 2.07-.83 2.74 0 .33.41.46.95.35 1.47" fill="#fff"/>
  </symbol>

  <symbol id="inbox-mail" viewBox="0 0 24 24" fill="none">
    <path d="M10 22.0002H14C17.7712 22.0002 19.6569 22.0002 20.8284 20.8286C22 19.6571 22 17.7714 22 14.0002C22 10.229 22 8.34335 20.8284 7.17178C20.4658 6.80918 20.0343 6.5588 19.4996 6.38591C19.5 6.55544 19.5 6.72881 19.5 6.90517L19.5 9.06327C19.5 9.09263 19.5003 9.12461 19.5006 9.15893C19.5035 9.49938 19.5085 10.07 19.264 10.592C19.0195 11.1141 18.578 11.4756 18.3145 11.6913C18.2882 11.7128 18.263 11.7334 18.2407 11.752L16.7342 13.0075C15.8734 13.7248 15.1241 14.3493 14.4505 14.7825C13.7245 15.2495 12.9391 15.5949 12 15.5949C11.0609 15.5949 10.2756 15.2495 9.54949 14.7825C8.87589 14.3493 8.12661 13.7248 7.26587 13.0075L5.75937 11.752C5.73681 11.7333 5.71207 11.713 5.68551 11.6913C5.42207 11.4756 4.98056 11.1141 4.73604 10.592C4.49152 10.07 4.49648 9.49938 4.49944 9.15893C4.49973 9.12462 4.50001 9.09262 4.50001 9.06327L4.50001 6.90516C4.49999 6.72858 4.49998 6.55528 4.5004 6.38556C3.96577 6.55846 3.53442 6.80893 3.17157 7.17178C2 8.34335 2 10.229 2 14.0002C2 17.7714 2 19.6571 3.17157 20.8286C4.34314 22.0002 6.22877 22.0002 10 22.0002Z" fill="currentColor"/>
    <path d="M6.71972 10.5997L8.15898 11.7991C9.99562 13.3296 10.9139 14.0949 12.0001 14.0949C13.0862 14.0949 14.0046 13.3296 15.8412 11.7991L17.2805 10.5997C17.6343 10.3048 17.8113 10.1574 17.9057 9.95578C18.0001 9.75421 18.0001 9.52389 18.0001 9.06325V7C18.0001 6.67937 18.0001 6.38054 17.9982 6.10169C17.9865 4.3306 17.9005 3.36486 17.2679 2.73223C16.5356 2 15.3571 2 13.0001 2H11.0001C8.64306 2 7.46455 2 6.73232 2.73223C6.09969 3.36486 6.01179 4.3306 6.00009 6.10169C5.99824 6.38054 6.00009 6.67937 6.00009 7V9.06325C6.00009 9.52389 6.00009 9.75421 6.0945 9.95578C6.18891 10.1574 6.36584 10.3048 6.71972 10.5997ZM9.25 6C9.25 5.58579 9.58579 5.25 10 5.25H14C14.4142 5.25 14.75 5.58579 14.75 6C14.75 6.41421 14.4142 6.75 14 6.75H10C9.58579 6.75 9.25 6.41421 9.25 6ZM10.25 9C10.25 8.58579 10.5858 8.25 11 8.25H13C13.4142 8.25 13.75 8.58579 13.75 9C13.75 9.41421 13.4142 9.75 13 9.75H11C10.5858 9.75 10.25 9.41421 10.25 9Z" fill-rule="evenodd" clip-rule="evenodd" fill="currentColor"/>
  </symbol>

  <symbol id="app-logo" viewBox="0 -960 960 960" fill="none">
    <path d="m334-80-74-30 58-141q-106-28-172-114T80-560v-160q0-66 47-113t113-47q22 0 42 7.5t40 15.5l238 97-160 60v60l440 280 40 200h-80l-40-80H560v160h-80v-160h-80L334-80Zm66-240h353l-63-40H400q-66 0-113-47t-47-113h80q0 33 23.5 56.5T400-440h165L320-596v-124q0-33-23.5-56.5T240-800q-33 0-56.5 23.5T160-720v160q0 100 70 170t170 70ZM240-680q-17 0-28.5-11.5T200-720q0-17 11.5-28.5T240-760q17 0 28.5 11.5T280-720q0 17-11.5 28.5T240-680Zm160 320Z" fill="currentColor"/>
  </symbol>

  <symbol id="name-icon" viewBox="0 0 24 24" fill="none">
    <circle cx="12" cy="6" r="4" stroke="currentColor" strokeWidth="1.5"/>
    <path d="M20 17.5C20 19.9853 20 22 12 22C4 22 4 19.9853 4 17.5C4 15.0147 7.58172 13 12 13C16.4183 13 20 15.0147 20 17.5Z" stroke="currentColor" strokeWidth="1.5"/>
  </symbol>

  <symbol id="id-card" viewBox="0 0 24 24" fill="none">
    <circle cx="9" cy="9" r="2" stroke="currentColor" strokeWidth="1.5"/>
    <path d="M13 15C13 16.1046 13 17 9 17C5 17 5 16.1046 5 15C5 13.8954 6.79086 13 9 13C11.2091 13 13 13.8954 13 15Z" stroke="currentColor" strokeWidth="1.5"/>
    <path d="M2 12C2 8.22876 2 6.34315 3.17157 5.17157C4.34315 4 6.22876 4 10 4H14C17.7712 4 19.6569 4 20.8284 5.17157C22 6.34315 22 8.22876 22 12C22 15.7712 22 17.6569 20.8284 18.8284C19.6569 20 17.7712 20 14 20H10C6.22876 20 4.34315 20 3.17157 18.8284C2 17.6569 2 15.7712 2 12Z" stroke="currentColor" strokeWidth="1.5"/>
    <path d="M19 12H15" stroke="currentColor" strokeWidth="1.5" strokeLinecap="round"/>
    <path d="M19 9H14" stroke="currentColor" strokeWidth="1.5" strokeLinecap="round"/>
    <path d="M19 15H16" stroke="currentColor" strokeWidth="1.5" strokeLinecap="round"/>
  </symbol>

  <symbol id="building" viewBox="0 0 24 24" fill="none">
    <path d="M22 22L2 22" stroke="currentColor" strokeWidth="1.5" strokeLinecap="round"/>
    <path d="M21 22V6C21 4.11438 21 3.17157 20.4143 2.58579C19.8285 2 18.8857 2 17 2H15C13.1144 2 12.1716 2 11.5858 2.58579C11.1143 3.05733 11.0223 3.76022 11.0044 5" stroke="currentColor" strokeWidth="1.5"/>
    <path d="M15 22V9C15 7.11438 15 6.17157 14.4142 5.58579C13.8284 5 12.8856 5 11 5H7C5.11438 5 4.17157 5 3.58579 5.58579C3 6.17157 3 7.11438 3 9V22" stroke="currentColor" strokeWidth="1.5"/>
    <path d="M9 22V19" stroke="currentColor" strokeWidth="1.5" strokeLinecap="round"/>
    <path d="M6 8H12" stroke="currentColor" strokeWidth="1.5" strokeLinecap="round"/>
    <path d="M6 11H12" stroke="currentColor" strokeWidth="1.5" strokeLinecap="round"/>
    <path d="M6 14H12" stroke="currentColor" strokeWidth="1.5" strokeLinecap="round"/>
  </symbol>

  <symbol id="checkbox" viewBox="0 0 24 24" fill="none">
    <path d="M6 15.8L7.14286 17L10 14" stroke="currentColor" strokeWidth="2.25" strokeLinecap="round" strokeLinejoin="round"/>
    <path d="M6 8.8L7.14286 10L10 7" stroke="currentColor" strokeWidth="2.25" strokeLinecap="round" strokeLinejoin="round"/>
    <path d="M13 9L18 9" stroke="currentColor" strokeWidth="2.25" strokeLinecap="round"/>
    <path d="M13 16L18 16" stroke="currentColor" strokeWidth="2.25" strokeLinecap="round"/>
  </symbol>
<symbol id="address-pin" viewBox="0 0 24 24" fill="none" xmlns="http://www.w3.org/2000/svg">
<path d="M5 8.51464C5 4.9167 8.13401 2 12 2C15.866 2 19 4.9167 19 8.51464C19 12.0844 16.7658 16.2499 13.2801 17.7396C12.4675 18.0868 11.5325 18.0868 10.7199 17.7396C7.23416 16.2499 5 12.0844 5 8.51464Z" stroke="currentColor" stroke-width="1.5"/>
<path d="M14 9C14 10.1046 13.1046 11 12 11C10.8954 11 10 10.1046 10 9C10 7.89543 10.8954 7 12 7C13.1046 7 14 7.89543 14 9Z" stroke="currentColor" stroke-width="1.5"/>
<path d="M20.9605 15.5C21.6259 16.1025 22 16.7816 22 17.5C22 19.9853 17.5228 22 12 22C6.47715 22 2 19.9853 2 17.5C2 16.7816 2.37412 16.1025 3.03947 15.5" stroke="currentColor" stroke-width="1.5" stroke-linecap="round"/>
</symbol>

<symbol id="url-link" viewBox="0 0 24 24" fill="none" xmlns="http://www.w3.org/2000/svg">
<path d="M8 18C5.17157 18 3.75736 18 2.87868 17.1213C2 16.2426 2 14.8284 2 12C2 9.17157 2 7.75736 2.87868 6.87868C3.75736 6 5.17157 6 8 6C10.8284 6 12.2426 6 13.1213 6.87868C14 7.75736 14 9.17157 14 12" stroke="currentColor" stroke-width="1.5" stroke-linecap="round" stroke-linejoin="round"/>
<path d="M10 12C10 14.8284 10 16.2426 10.8787 17.1213C11.7574 18 13.1716 18 16 18C18.8284 18 20.2426 18 21.1213 17.1213C22 16.2426 22 14.8284 22 12C22 9.17157 22 7.75736 21.1213 6.87868C20.2426 6 18.8284 6 16 6" stroke="currentColor" stroke-width="1.5" stroke-linecap="round" stroke-linejoin="round"/>
</symbol>

<symbol id="simple-user" viewBox="0 0 24 24" fill="none" xmlns="http://www.w3.org/2000/svg">
<circle cx="12" cy="6" r="4" stroke="currentColor" stroke-width="1.5"/>
<path d="M20 17.5C20 19.9853 20 22 12 22C4 22 4 19.9853 4 17.5C4 15.0147 7.58172 13 12 13C16.4183 13 20 15.0147 20 17.5Z" stroke="currentColor" stroke-width="1.5"/>
</symbol>

</svg>
